<?xml version="1.0" encoding="UTF-8"?><svg id="Layer_2" xmlns="http://www.w3.org/2000/svg" xmlns:xlink="http://www.w3.org/1999/xlink" viewBox="0 0 229.4 23.1"><defs><style>.cls-1{fill:#fff;}.cls-1,.cls-2{fill-rule:evenodd;}.cls-3{fill:#40bcf4;}.cls-2{fill:url(#linear-gradient);}.cls-4{fill:#ff8000;}.cls-5{fill:#00e054;}</style><linearGradient id="linear-gradient" x1="-282.42" y1="-364.4" x2="-282.42" y2="-363.42" gradientTransform="translate(45728.1 8381.4) scale(161.39 23)" gradientUnits="userSpaceOnUse"><stop offset="0" stop-color="#fff"/><stop offset="1" stop-color="#e2e6e9"/></linearGradient></defs><g id="Layer_1-2"><g id="dots"><circle id="Oval-32" class="cls-4" cx="10.5" cy="12.6" r="10.5"/><circle id="Oval-32-2" class="cls-5" cx="28.5" cy="12.6" r="10.5"/><path id="Combined-Shape" class="cls-1" d="m19.5,7.2c1,1.6,1.5,3.4,1.5,5.4s-.5,3.8-1.5,5.4c-1-1.6-1.5-3.4-1.5-5.4s.5-3.7,1.4-5.2l.1-.2Z"/><circle id="Oval-32-3" class="cls-3" cx="46.5" cy="12.6" r="10.5"/><path id="Combined-Shape-2" class="cls-1" d="m37.5,7.2c1,1.6,1.5,3.4,1.5,5.4s-.5,3.8-1.5,5.4c-1-1.6-1.5-3.4-1.5-5.4s.5-3.7,1.4-5.2l.1-.2Z"/></g><path id="Combined-Shape-3" class="cls-2" d="m92.6,5.3c6,0,8.6,3.9,8.6,8.5v1.9h-12c.3,2.1,1.4,3.2,3.5,3.2,1.5,0,2.3-.6,2.7-1.6h5.7c-.9,3.6-3.6,5.8-8.5,5.8-5.9,0-8.6-3.3-8.6-8.5v-.5c-.2-5.5,3.3-8.8,8.6-8.8Zm43.3,0c6,0,8.6,3.9,8.6,8.5v1.9h-12c.3,2.1,1.4,3.2,3.5,3.2,1.5,0,2.3-.6,2.7-1.6h5.7c-.9,3.6-3.6,5.8-8.5,5.8-5.9,0-8.6-3.3-8.6-8.5v-.5c-.1-5.5,3.3-8.8,8.6-8.8ZM165.2.1v8.3c.9-1.9,2.6-3.1,5-3.1,3.8,0,6.6,2.6,6.6,8.4v.5c0,5.8-2.5,8.9-6.7,8.9-2.6,0-4.2-1.3-5.1-3.3l-.4,2.8h-4.7V0h5.3v.1Zm21.8,5.2c5.1,0,8.6,3,8.6,8.7v.5c0,5.7-3.4,8.5-8.6,8.5-5.5,0-8.6-2.9-8.6-8.5v-.5c0-5.7,3.6-8.7,8.6-8.7ZM229.4.1v22.6h-4.5l-.5-3c-.8,2-2.5,3.3-5.2,3.3-4.1,0-6.7-3-6.7-8.8v-.5c0-5.7,2.8-8.4,6.7-8.4,2.5,0,4.1,1,4.9,2.8V.1h5.3ZM73.5,1.7v15.8h8.8v5.2h-14.3V1.7h5.5Zm36.3-.3v4.2h4.2c.6,0,1.1-.1,1.7-.2,1.1-.1,1.5-.6,1.7-2.1.1-.7.1-1.3.2-2h4.4v4.2h4v4.7h-4v4.1c0,2.9.4,3.3,3,3.3h1.1v5h-2.7c-5.1,0-6.4-1.8-6.4-7.1v-5.1h-7.1v4.1c0,2.9.4,3.3,3,3.3h1.1v5h-2.7c-5.1,0-6.4-1.8-6.4-7.1v-5.1h-2.9v-4.4c.6,0,1.1-.1,1.7-.2,1.1-.1,1.5-.6,1.7-2.1.1-.7.1-1.6.2-2.3h4.2v-.2Zm48.2,4v5.6h-2c-3.1,0-3.9,1.1-3.9,4.1v7.5h-5.4V5.6h4.3l.7,3.5c.6-2.6,2.3-3.7,5.3-3.7h1Zm43.3.3l2.8,4.3,2.8-4.3h6l-5.7,8.1,6,8.9h-6.1l-3.1-4.8-3.1,4.8h-6.3l6.3-8.8-5.7-8.1h6.1v-.1Zm-14.3,4.1c-2,0-3.3,1.4-3.3,4.2v.5c0,2.6,1.3,4,3.3,4s3.3-1.3,3.3-4v-.5c0-2.7-1.2-4.2-3.3-4.2Zm-18.6,0c-1.9,0-3.3,1.5-3.3,4v.4c0,3,1.3,4.3,3.2,4.3,2,0,3.2-1.3,3.2-4.2v-.4c0-2.8-1.3-4.1-3.1-4.1Zm52.7,0c-2,0-3.2,1.4-3.2,4v.4c0,3,1.3,4.3,3.1,4.3,2,0,3.3-1.4,3.3-4.3v-.4c-.1-2.6-1.3-4-3.2-4Zm-128.5-.4c-2,0-3.1,1-3.5,3h6.7c-.2-1.9-1.2-3-3.2-3Zm43.4,0c-2,0-3.1,1-3.5,3h6.7c-.2-1.9-1.2-3-3.2-3Z"/></g></svg>