<?xml version="1.0" encoding="UTF-8"?>
<svg id="Layer_2" data-name="Layer 2" xmlns="http://www.w3.org/2000/svg" viewBox="0 0 60 33.85">
  <defs>
    <style>
      .cls-1 {
        fill: #9ab;
      }
    </style>
  </defs>
  <g id="Layer_1-2" data-name="Layer 1">
    <path class="cls-1" d="m43.81,25.3c-1.38,0-2.5-1.12-2.5-2.5s1.12-2.5,2.5-2.5,2.5,1.12,2.5,2.5-1.12,2.5-2.5,2.5m-27.61,0c-1.38,0-2.5-1.12-2.5-2.5s1.12-2.5,2.5-2.5,2.5,1.12,2.5,2.5-1.12,2.5-2.5,2.5m28.51-15.05l4.99-8.65c.31-.49.17-1.13-.32-1.44-.49-.31-1.13-.17-1.44.32-.02.02-.03.05-.04.08h0l-5.05,8.76c-8.17-3.66-17.52-3.66-25.69,0L12.1.57c-.27-.51-.9-.71-1.41-.44s-.71.9-.44,1.41c.01.03.03.05.04.08h0l4.99,8.65C6.72,14.91.85,23.6,0,33.85h60c-.85-10.26-6.72-18.94-15.3-23.6"/>
  </g>
</svg>