<?xml version="1.0" encoding="UTF-8"?>
<svg id="Layer_2" data-name="Layer 2" xmlns="http://www.w3.org/2000/svg" viewBox="0 0 49.72 50.07">
  <defs>
    <style>
      .cls-1 {
        fill: #9ab;
      }
    </style>
  </defs>
  <g id="Layer_1-2" data-name="Layer 1">
    <path id="Combined-Shape" class="cls-1" d="m41.9,14.56c.71,0,1.07.36,1.07.71l-4.26,30.54c0,1.78-2.13,4.26-4.26,4.26H15.98c-2.13,0-3.91-2.49-4.26-4.26L7.46,15.27c0-.36.36-.71,1.07-.71h33.38Zm-20.24,7.1h-3.55v21.31h3.55v-21.31Zm10.65,0h-3.55v21.31h3.55v-21.31ZM30.89.36c1.07,0,1.78.36,2.13,1.07l.36.71,2.13,3.55h7.81c4.62,0,6.39.36,6.39,2.13v2.13c0,.71-.71,1.42-1.42,1.42H1.07c-.71,0-1.07-.71-1.07-1.42v-2.13c0-1.78,1.78-2.13,5.68-2.13h8.52l2.13-3.55s.36-.36.36-.71c.71-.71,1.07-1.42,2.13-1.42h12.07v.36Z"/>
  </g>
</svg>