<?xml version="1.0" encoding="UTF-8"?>
<svg id="Layer_2" data-name="Layer 2" xmlns="http://www.w3.org/2000/svg" viewBox="0 0 58.99 70.2">
  <defs>
    <style>
      .cls-1 {
        fill: #9ab;
      }
    </style>
  </defs>
  <g id="Layer_1-2" data-name="Layer 1">
    <path class="cls-1" d="m49.32,37.09c-.03-5.75,2.57-10.09,7.84-13.29-2.95-4.22-7.4-6.54-13.27-6.99-5.56-.44-11.64,3.24-13.87,3.24-2.35,0-7.74-3.09-11.97-3.09-8.74.14-18.04,6.97-18.04,20.87,0,4.11.75,8.35,2.26,12.73,2.01,5.75,9.25,19.86,16.8,19.62,3.95-.09,6.74-2.81,11.88-2.81s7.57,2.81,11.97,2.81c7.62-.11,14.17-12.93,16.08-18.7-10.22-4.81-9.67-14.1-9.67-14.4h0Zm-8.87-25.73c4.28-5.08,3.89-9.7,3.76-11.36-3.78.22-8.15,2.57-10.64,5.47-2.74,3.1-4.36,6.94-4.01,11.27,4.09.31,7.82-1.79,10.89-5.38Z"/>
  </g>
</svg>