<?xml version="1.0" encoding="UTF-8"?>
<svg id="Layer_2" data-name="Layer 2" xmlns="http://www.w3.org/2000/svg" viewBox="0 0 29 20.9">
  <defs>
    <style>
      .cls-1 {
        fill-rule: evenodd;
      }

      .cls-1, .cls-2 {
        fill: #9ab;
      }
    </style>
  </defs>
  <g id="Layer_1-2" data-name="Layer 1">
    <g id="TabLoginOn">
      <path id="Stroke-25" class="cls-2" d="m15.3,13.9c-1.6-.6-3.6-.9-5.8-.9-5.2,0-9.5,2-9.5,4.4v3.1c0,.2.2.4.4.4h18.1c.2,0,.4-.2.4-.4v-2.1c0-.2-.2-.4-.4-.4h-1.7c-.5,0-.9-.4-.9-.9v-2.8c.1-.2-.5-.3-.6-.4Zm-1.3-9.2c0-2.8-1.9-4.7-4.5-4.7s-4.5,1.8-4.5,4.6c0,3.4,1.7,6.4,4.5,6.4s4.5-2.8,4.5-6.3Z"/>
      <g id="padlock">
        <path id="Oval-4" class="cls-2" d="m20,8h7v-2.5c0-1.9-1.6-3.5-3.5-3.5s-3.5,1.6-3.5,3.5v2.5Z"/>
        <path id="Combined-Shape" class="cls-1" d="m28.5,7c.3,0,.5.2.5.5v8c0,.3-.2.5-.5.5h-10c-.3,0-.5-.2-.5-.5V7.5c0-.3.2-.5.5-.5h10Zm-5,2c-.8,0-1.5.7-1.5,1.5,0,.7.4,1.2,1,1.4v1.6c0,.3.2.5.5.5s.5-.2.5-.5v-1.6c.6-.2,1-.8,1-1.4,0-.8-.7-1.5-1.5-1.5Z"/>
      </g>
    </g>
  </g>
</svg>